HIERARCHY
ROOT hip
{
  OFFSET 0 0 0
  CHANNELS 6 Xposition Yposition Zposition Zrotation Yrotation Xrotation
  JOINT abdomen
  {
    OFFSET 0 20.6881 -0.73152
    CHANNELS 3 Zrotation Xrotation Yrotation
    JOINT chest
    {
      OFFSET 0 11.7043 -0.48768
      CHANNELS 3 Zrotation Xrotation Yrotation
      JOINT neck
      {
        OFFSET 0 22.1894 -2.19456
        CHANNELS 3 Zrotation Xrotation Yrotation
        JOINT head
        {
          OFFSET -0.24384 7.07133 1.2192
          CHANNELS 3 Zrotation Xrotation Yrotation
          JOINT leftEye
          {
            OFFSET 4.14528 8.04674 8.04672
            CHANNELS 3 Zrotation Xrotation Yrotation
            End Site
            {
              OFFSET 1 0 0
            }
          }
          JOINT rightEye
          {
            OFFSET -3.6576 8.04674 8.04672
            CHANNELS 3 Zrotation Xrotation Yrotation
            End Site
            {
              OFFSET 1 0 0
            }
          }
        }
      }
      JOINT rCollar
      {
        OFFSET -2.68224 19.2634 -4.8768
        CHANNELS 3 Zrotation Xrotation Yrotation
        JOINT rShldr
        {
          OFFSET -8.77824 -1.95073 1.46304
          CHANNELS 3 Zrotation Xrotation Yrotation
          JOINT rForeArm
          {
            OFFSET -28.1742 -1.7115 0.48768
            CHANNELS 3 Zrotation Xrotation Yrotation
            JOINT rHand
            {
              OFFSET -22.5879 0.773209 7.07136
              CHANNELS 3 Zrotation Xrotation Yrotation
              JOINT rThumb1
              {
                OFFSET -1.2192 -0.487915 3.41376
                CHANNELS 3 Zrotation Xrotation Yrotation
                JOINT rThumb2
                {
                  OFFSET -3.37035 -0.52449 3.41376
                  CHANNELS 3 Zrotation Xrotation Yrotation
                  End Site
                  {
                    OFFSET -1.78271 -1.18214 1.43049
                  }
                }
              }
              JOINT rIndex1
              {
                OFFSET -7.75947 0.938293 5.60832
                CHANNELS 3 Zrotation Xrotation Yrotation
                JOINT rIndex2
                {
                  OFFSET -2.54057 -0.884171 1.56538
                  CHANNELS 3 Zrotation Xrotation Yrotation
                  End Site
                  {
                    OFFSET -1.62519 -0.234802 1.16502
                  }
                }
              }
              JOINT rMid1
              {
                OFFSET -8.24714 1.18213 3.41376
                CHANNELS 3 Zrotation Xrotation Yrotation
                JOINT rMid2
                {
                  OFFSET -3.10165 -0.590103 1.0647
                  CHANNELS 3 Zrotation Xrotation Yrotation
                  End Site
                  {
                    OFFSET -2.48547 -0.328903 0.83742
                  }
                }
              }
              JOINT rRing1
              {
                OFFSET -8.82822 0.546677 1.51678
                CHANNELS 3 Zrotation Xrotation Yrotation
                JOINT rRing2
                {
                  OFFSET -2.60934 -0.819778 -0.0198488
                  CHANNELS 3 Zrotation Xrotation Yrotation
                  End Site
                  {
                    OFFSET -2.33842 -0.294052 0.168128
                  }
                }
              }
              JOINT rPinky1
              {
                OFFSET -8.27202 -0.0477905 -0.4584
                CHANNELS 3 Zrotation Xrotation Yrotation
                JOINT rPinky2
                {
                  OFFSET -1.82734 -0.647385 -0.700984
                  CHANNELS 3 Zrotation Xrotation Yrotation
                  End Site
                  {
                    OFFSET -1.69225 -0.51767 -0.607171
                  }
                }
              }
            }
          }
        }
      }
      JOINT lCollar
      {
        OFFSET 2.68224 19.2634 -4.8768
        CHANNELS 3 Zrotation Xrotation Yrotation
        JOINT lShldr
        {
          OFFSET 8.77824 -1.95073 1.46304
          CHANNELS 3 Zrotation Xrotation Yrotation
          JOINT lForeArm
          {
            OFFSET 28.1742 -1.7115 0.48768
            CHANNELS 3 Zrotation Xrotation Yrotation
            JOINT lHand
            {
              OFFSET 22.5879 0.773209 7.07136
              CHANNELS 3 Zrotation Xrotation Yrotation
              JOINT lThumb1
              {
                OFFSET 1.2192 -0.487915 3.41376
                CHANNELS 3 Zrotation Xrotation Yrotation
                JOINT lThumb2
                {
                  OFFSET 3.37035 -0.52449 3.41376
                  CHANNELS 3 Zrotation Xrotation Yrotation
                  End Site
                  {
                    OFFSET 1.78271 -1.18214 1.43049
                  }
                }
              }
              JOINT lIndex1
              {
                OFFSET 7.75947 0.938293 5.60832
                CHANNELS 3 Zrotation Xrotation Yrotation
                JOINT lIndex2
                {
                  OFFSET 2.54057 -0.884171 1.56538
                  CHANNELS 3 Zrotation Xrotation Yrotation
                  End Site
                  {
                    OFFSET 1.62519 -0.234802 1.16502
                  }
                }
              }
              JOINT lMid1
              {
                OFFSET 8.24714 1.18213 3.41376
                CHANNELS 3 Zrotation Xrotation Yrotation
                JOINT lMid2
                {
                  OFFSET 3.10165 -0.590103 1.0647
                  CHANNELS 3 Zrotation Xrotation Yrotation
                  End Site
                  {
                    OFFSET 2.48547 -0.328903 0.83742
                  }
                }
              }
              JOINT lRing1
              {
                OFFSET 8.82822 0.546677 1.51678
                CHANNELS 3 Zrotation Xrotation Yrotation
                JOINT lRing2
                {
                  OFFSET 2.60934 -0.819778 -0.0198488
                  CHANNELS 3 Zrotation Xrotation Yrotation
                  End Site
                  {
                    OFFSET 2.33842 -0.294052 0.168128
                  }
                }
              }
              JOINT lPinky1
              {
                OFFSET 8.27202 -0.0477905 -0.4584
                CHANNELS 3 Zrotation Xrotation Yrotation
                JOINT lPinky2
                {
                  OFFSET 1.82734 -0.647385 -0.700984
                  CHANNELS 3 Zrotation Xrotation Yrotation
                  End Site
                  {
                    OFFSET 1.69225 -0.51767 -0.607171
                  }
                }
              }
            }
          }
        }
      }
    }
  }
  JOINT rButtock
  {
    OFFSET -8.77824 4.35084 1.2192
    CHANNELS 3 Zrotation Xrotation Yrotation
    JOINT rThigh
    {
      OFFSET 0 -1.70687 -2.19456
      CHANNELS 3 Zrotation Xrotation Yrotation
      JOINT rShin
      {
        OFFSET 0 -36.8199 0.73152
        CHANNELS 3 Zrotation Xrotation Yrotation
        JOINT rFoot
        {
          OFFSET 0.73152 -45.1104 -5.12064
          CHANNELS 3 Zrotation Xrotation Yrotation
          End Site
          {
            OFFSET -1.1221 -3.69964 12.103
          }
        }
      }
    }
  }
  JOINT lButtock
  {
    OFFSET 8.77824 4.35084 1.2192
    CHANNELS 3 Zrotation Xrotation Yrotation
    JOINT lThigh
    {
      OFFSET 0 -1.70687 -2.19456
      CHANNELS 3 Zrotation Xrotation Yrotation
      JOINT lShin
      {
        OFFSET 0 -36.8199 0.73152
        CHANNELS 3 Zrotation Xrotation Yrotation
        JOINT lFoot
        {
          OFFSET -0.73152 -45.1104 -5.12064
          CHANNELS 3 Zrotation Xrotation Yrotation
          End Site
          {
            OFFSET 1.1221 -3.69964 12.103
          }
        }
      }
    }
  }
}
MOTION
Frames:	6
Frame Time:	0.03333
0.0 0.0 0.0 0.0 0.0 0.0 0.0 0.0 0.0 0.0 0.0 0.0 0.0 0.0 0.0 0.0 0.0 0.0 0.0 0.0 0.0 0.0 0.0 0.0 0.0 0.0 0.0 0.0 0.0 0.0 0.0 0.0 0.0 0.0 0.0 0.0 0.0 0.0 0.0 0.0 0.0 0.0 0.0 0.0 0.0 0.0 0.0 0.0 0.0 0.0 0.0 0.0 0.0 0.0 0.0 0.0 0.0 0.0 0.0 0.0 0.0 0.0 0.0 0.0 0.0 0.0 0.0 0.0 0.0 0.0 0.0 0.0 0.0 0.0 0.0 0.0 0.0 0.0 0.0 0.0 0.0 0.0 0.0 0.0 0.0 0.0 0.0 0.0 0.0 0.0 0.0 0.0 0.0 0.0 0.0 0.0 0.0 0.0 0.0 0.0 0.0 0.0 0.0 0.0 0.0 0.0 0.0 0.0 0.0 0.0 0.0 0.0 0.0 0.0 0.0 0.0 0.0 0.0 0.0 0.0 0.0 0.0 0.0 0.0 0.0 0.0 0.0 0.0 0.0 0.0 0.0 0.0
-0.12140000000000001 61.768299999999996 -0.1669 179.788982 -11.161656 179.011455 0.862031 2.843169 -0.0 9.079655 2.452871 -66.669647 8.591771 -11.586416 90.345319 -33.142515 -19.048868 -55.034428 8.191301 2.797185 37.6555 67.712423 -7.146052 -10.635212 -37.183651 50.718365 113.902609 -78.220592 71.187867 97.155802 -168.692705 -1.597902 -26.114513 25.760214 -38.832532 -47.11466 -9.891942 -14.738044 39.401491 173.637233 4.979534 -92.16731 88.395655 65.341238 -53.988976 -4.824112 55.885962 -88.245435 145.205943 29.577846 -112.585445 -167.415919 -50.734786 141.261762 -179.593122 17.992782 -90.622985 -164.321396 -43.897977 -172.998711 -11.630175 8.689907 -69.043064 -19.329172 -23.011921 -15.125673 -62.137252 34.861653 -12.552126 -21.27712 -34.835276 -12.428539 1.588952 6.036634 -158.749268 9.326917 29.956466 36.425397 176.675629 1.963922 -74.519216 60.570331 25.254028 -64.59696 18.847587 -8.241947 -17.782727 169.590994 -11.183145 -103.66902 -156.027872 -42.538106 -146.162335 27.946281 -29.852747 80.338989 97.280274 50.065114 106.794399 79.112754 54.906491 -94.559205 102.842634 46.77292 72.296969 -176.970344 70.650151 130.060329 48.590353 -20.694527 64.94062 -8.664613 51.212058 -133.733675 -3.502251 6.192067 -143.632856 -69.11899 -6.390386 105.111062 40.333729 -30.323845 56.689214 -2.867027 50.150596 2.165359 7.276725 0.711599 90.601616 69.910451 2.982228 -100.938355
-0.8193 55.63590000000001 -1.4404 -163.882499 17.370259 -172.970958 17.068232 14.639292 112.347134 -5.751272 10.912167 -104.190474 3.393466 35.956783 -136.842424 35.249542 39.116204 144.261024 -11.151099 0.590583 -6.044257 -3.053224 2.257533 -72.952066 -134.094368 48.491619 139.796397 87.538721 -19.972559 81.581574 91.254125 36.535313 80.803614 -53.681076 48.052238 30.572028 -4.87981 18.809641 -4.479682 1.96649 -14.847797 12.231436 -58.626957 34.061266 35.012802 29.54032 -1.164862 8.759626 -3.454322 1.197071 9.891563 -83.381122 79.50867 88.044219 -8.32949 -46.589006 -5.555641 -34.713776 -76.854226 -63.152214 -136.925907 50.815673 175.658045 30.984412 19.538195 9.480211 -22.799973 -85.671164 -6.947532 115.903008 -8.285509 171.399465 -86.694898 31.18128 115.977527 -173.353697 17.762884 -151.211906 -71.172036 -52.36543 -25.180827 -59.220506 -82.527526 -0.231876 177.727557 -37.597762 -101.906895 149.548073 -4.355125 -96.033488 151.304428 31.390492 -134.952123 172.002278 9.840331 -147.054142 141.508084 8.95989 -167.773863 115.762339 -43.652583 157.84337 150.523337 -24.084853 161.514236 158.832471 25.187515 156.048873 -100.978083 63.437664 -42.678076 89.246784 33.546598 -89.583745 -47.581881 -35.418026 169.050097 -80.141148 48.439298 -13.105214 116.625982 53.61167 43.13782 -111.023516 -24.794643 -29.273173 -62.028553 67.051811 66.943313 -145.390467 -28.967985 5.994925
-1.8014999999999999 47.934599999999996 -1.503 -162.59138 14.824303 -167.281511 18.700143 5.370937 -1.010561 -8.570671 -4.958798 13.805231 21.530647 17.153945 107.373465 -25.47564 21.780752 -85.153886 -3.436615 -0.775822 25.435751 168.324109 1.353119 -13.176261 -6.643129 45.016423 3.160652 -76.109578 68.845159 152.33409 -150.025588 -71.184099 -47.844844 -5.907861 -48.013314 -11.300976 1.590381 4.715336 -2.157112 -0.561514 -21.365177 -22.842442 -21.695316 9.722143 12.29423 155.837432 -76.724922 89.819643 13.760621 -7.96175 8.612726 -178.223102 -3.981591 140.434952 -76.303456 -78.974736 -86.432846 -154.869947 -24.567212 -173.515862 -149.166736 43.859851 167.871902 25.981087 -60.83566 40.520746 -3.772282 -18.517821 -10.331995 97.966132 18.524648 -111.860804 -10.410322 -1.262361 56.939018 -98.927854 -57.811081 -99.384508 140.564737 14.078484 -97.517903 173.793405 -35.179939 -100.230872 2.718445 49.472332 -10.07998 113.938299 61.443733 -39.243038 13.377967 25.184467 -8.552376 168.407278 8.820415 -136.12892 29.350686 -55.131093 40.908926 75.889984 75.812069 -93.321995 36.062301 -66.027781 17.719348 162.375047 53.724152 141.831081 157.956755 71.790444 23.086183 124.281467 62.303893 148.726393 49.096071 -18.354725 3.628776 84.153484 81.113304 -177.530872 -133.814683 69.585281 -28.187168 -153.040466 -5.929128 94.070011 90.255515 0.685612 15.580146 -158.411104 19.439499 99.822397
-2.1992000000000003 47.5352 -1.0985 -162.294259 15.81877 -166.536039 11.034549 4.588766 112.306445 -4.841 -1.433561 -99.544725 19.688146 24.902098 108.790678 -33.093948 26.264876 -79.649926 33.904041 19.73336 59.418493 53.027217 9.202325 18.327892 -155.514468 19.67901 161.974528 -101.442532 23.427223 78.609336 -101.63421 39.326854 -130.260262 43.94011 -81.539182 28.839317 -4.114091 6.970965 -10.101953 15.054563 -40.66331 -1.815763 -168.893203 -16.736025 125.200636 -168.663042 9.294191 123.894862 26.51752 -51.297289 -4.579577 -8.005027 -16.406315 10.420145 5.436971 0.376976 14.365824 -157.295538 75.372634 162.944389 -155.833718 -36.977514 -148.27672 -172.037135 0.912532 -155.975788 146.700722 21.957573 -144.380143 -135.030202 43.588171 134.765071 -174.932469 -22.180473 -121.67275 -119.836155 -55.076944 -126.474131 -5.358483 0.106189 13.668388 -84.590773 -72.721083 -28.15303 73.679695 60.620917 -63.084195 18.738649 -2.061578 26.51857 -2.469684 3.160178 -3.241023 175.228437 -63.83983 -175.724664 108.834889 -49.252032 114.843429 125.354728 6.566927 172.257612 -2.53902 -41.308449 21.885383 19.238913 -35.915133 -27.347125 -0.062654 -1.982258 -1.810727 -17.896453 8.731757 -0.0 6.79506 36.586623 28.415306 -102.075519 41.162812 19.017642 -173.295339 69.007415 -7.1765 -141.781985 -21.965594 -180.0 51.98575 -83.586116 -163.076492 78.538862 21.714314 -10.602764
-2.7877 48.4022 -0.2414 -162.798271 15.931442 -166.015821 10.089673 2.876454 122.551102 -4.904611 -1.78922 -111.849629 15.15321 29.53443 139.996582 -26.153669 35.209163 -108.099235 -2.314409 0.398824 -19.552081 26.848131 2.481253 10.369071 -155.984126 -1.429377 167.00356 -95.846252 36.629022 61.936737 21.182993 -53.331249 -121.286678 -157.410303 31.969112 134.807272 -172.156424 -11.182467 98.668536 -160.358599 -20.965944 95.14109 -163.781809 -35.283633 143.408115 -37.785142 -80.70423 -96.349328 -166.338172 -20.312783 139.851629 -85.850014 44.547749 79.546835 5.296234 -2.850101 13.691153 -171.379107 2.000079 -166.082938 -92.526773 76.997932 137.633431 15.645281 -2.903304 -18.698129 -3.232107 -18.068006 -3.617457 108.596598 19.577667 -115.184139 -177.071957 -1.609199 160.327249 11.353849 75.242979 -11.65695 166.731647 -16.660475 -100.906352 -90.345721 -65.461589 -57.41964 -16.342791 -42.510606 17.400686 177.317416 -6.201146 -106.843097 1.418841 -19.417923 1.026835 6.617417 1.356252 9.16566 11.649048 3.500886 18.666212 -95.543873 -63.593907 -76.805937 10.844314 -38.47797 37.652745 179.676567 -25.976958 -175.02138 4.939634 -2.954993 2.406703 -18.261063 9.136592 -115.698222 -47.933895 -15.167697 -90.406305 -124.587681 26.036875 -159.072445 -112.035181 57.451886 -33.65519 -167.498576 -9.329714 53.826844 73.346777 68.201987 -109.997246 -115.142497 -61.011248 -10.533406
